# xmcd CD database file
#
# Track frame offsets:
#	150
#	8938
#	19379
#	28596
#	41974
#	54408
#	65320
#	76390
#	88663
#	98440
#	109289
#	123824
#	139145
#	150255
#	158631
#	174983
#	192663
#	202797
#	214109
#	225156
#	235110
#	246315
#	259342
#	267946
#	279018
#	289968
#	304034
#
# Disc length: 4221 seconds
#
# Revision: 0
# Processed by: cddbd v1.5.2PL0 Copyright (c) Steve Scherf et al.
# Submitted via: CDex 1.70beta2
#
DISCID=67107b1b
DTITLE=Dolly Parton and Porter Wagoner - Just between you and me CD 5
DYEAR=2014
DGENRE=Country
TTITLE0=How can I (help you forgive me)
TTITLE1=Come to me
TTITLE2=Laugh the years away
TTITLE3=There'll always be music
TTITLE4=I have no right to care
TTITLE5=Come to me
TTITLE6=Beneath the sweet magnolia tree
TTITLE7=love is out tonight
TTITLE8=If teardrops were pennies
TTITLE9=You
TTITLE10=There'll alway be music
TTITLE11=I get lonesome by myself
TTITLE12=Sounds of night
TTITLE13=Wasting love
TTITLE14=All aboard America
TTITLE15=Here comes the freedom train
TTITLE16=Too far gone
TTITLE17=Again
TTITLE18=Something to reach for
TTITLE19=The fire that keeps you warm
TTITLE20=Without you
TTITLE21=Sixteen years
TTITLE22=Carolina moonshine
TTITLE23=If you say I can
TTITLE24=The power of love
TTITLE25=The beginning 
TTITLE26=Please don't stop loving me
EXTD=YEAR: 2014
EXTT0=
EXTT1=
EXTT2=
EXTT3=
EXTT4=
EXTT5=
EXTT6=
EXTT7=
EXTT8=
EXTT9=
EXTT10=
EXTT11=
EXTT12=
EXTT13=
EXTT14=
EXTT15=
EXTT16=
EXTT17=
EXTT18=
EXTT19=
EXTT20=
EXTT21=
EXTT22=
EXTT23=
EXTT24=
EXTT25=
EXTT26=
PLAYORDER=
